<?xml version="1.0" encoding="utf-8"?><!DOCTYPE svg PUBLIC "-//W3C//DTD SVG 1.1//EN" "http://www.w3.org/Graphics/SVG/1.1/DTD/svg11.dtd"><svg version="1.1" id="Contours" xmlns="http://www.w3.org/2000/svg" xmlns:xlink="http://www.w3.org/1999/xlink" x="0px" y="0px" width="406.716553px" height="406.716553px" viewBox="0.000001 -0.000002 406.716553 406.954315" enable-background="new 0 0 406.716553 406.716553" xml:space="preserve" stroke="black" fill="none" stroke-linecap='round' stroke-linejoin='round'><path class="selected"  fill="#ec4747" opacity="1.000000" stroke="none" 
 	d="
M189.977988 406.954325 C188.949393 406.620982 188.415915 405.989237 187.892905 405.997813 C173.260184 406.237498 159.156028 402.805155 145.355643 398.737589 C134.926398 395.663615 124.920127 390.959330 115.007514 386.371531 C98.316352 378.646464 83.380164 368.320170 69.455542 356.169901 C47.090796 336.654978 30.247641 313.382151 17.910674 286.528269 C11.003020 271.492380 6.453078 255.762156 3.112548 239.682688 C1.646300 232.624949 1.528541 225.271250 1.011573 218.036692 C0.522033 211.185953 -0.270082 204.284434 0.091758 197.459391 C1.016219 180.022074 3.266730 162.776194 8.397338 145.948130 C14.685958 125.321894 23.737502 106.086161 35.999427 88.380076 C45.330848 74.905588 55.623725 62.243327 68.514563 51.934367 C76.387397 45.638346 83.978171 38.904078 92.326423 33.307597 C105.714881 24.332301 120.110831 16.960322 135.495383 12.095972 C148.228934 8.069826 161.307578 5.078989 174.334678 2.068049 C178.864982 1.020975 183.697165 1.260523 188.394614 0.961291 C194.087974 0.598605 199.803306 -0.184522 205.476523 0.039667 C225.355338 0.825228 244.937278 3.494395 264.045310 9.436999 C282.652549 15.223841 299.802237 24.072428 316.292563 34.124796 C323.900290 38.762400 330.478812 45.126582 337.372519 50.889155 C350.752585 62.073832 362.203605 75.154490 371.784934 89.583186 C378.773795 100.107859 384.308280 111.655604 389.893119 123.040629 C396.638328 136.791163 401.066398 151.390284 402.916221 166.621653 C404.545066 180.033457 406.857627 193.522868 406.709800 206.954264 C406.451529 230.424174 402.537131 253.592142 393.757132 275.482645 C385.784507 295.360148 375.663138 314.122935 361.797141 330.774210 C345.289969 350.597117 326.409629 367.293833 303.864127 380.084605 C285.372733 390.575358 265.784690 397.917857 245.275565 402.778574 C236.606406 404.833140 227.499015 405.231272 218.554374 405.878062 C209.218467 406.553019 199.838614 406.620982 189.977988 406.954325 M205.477988 14.954325 C190.807883 14.890276 176.340232 16.609362 162.067130 19.960413 C143.616446 24.292292 125.715079 30.295718 109.457145 40.121989 C88.694449 52.670924 69.808509 67.585291 55.170936 87.272288 C44.356025 101.817973 34.763450 117.042628 28.265044 134.107554 C20.891280 153.471247 16.540290 173.497843 15.070098 194.087199 C13.922004 210.165629 15.220092 226.304392 19.207313 241.848399 C22.954207 256.455546 27.382560 271.142069 33.700812 284.779154 C44.723380 308.569773 60.390677 329.219187 80.655051 346.284647 C92.306830 356.097056 104.569114 365.027445 118.268744 371.434092 C129.947135 376.895457 142.223395 381.572062 154.712317 384.676066 C168.941611 388.212626 183.629752 390.366160 198.248191 391.741495 C212.424674 393.075236 226.570395 390.789500 240.566214 388.002207 C255.993461 384.929880 270.927604 380.254252 284.966575 373.312174 C310.273612 360.798258 332.419700 344.185923 349.914878 321.636576 C362.248588 305.739817 372.840293 289.006785 379.575370 269.916697 C387.670798 246.970866 392.354819 223.478007 391.939506 199.082712 C391.887900 196.050394 391.330039 193.024790 390.974387 189.999888 C389.984702 181.582499 389.894950 172.929514 387.788566 164.799998 C383.299216 147.473734 378.224662 130.370814 369.305533 114.475840 C360.771262 99.266733 350.944114 85.159403 338.954307 72.657862 C332.479850 65.907038 324.938559 60.147684 317.666373 54.200495 C304.166892 43.160563 289.148368 34.601069 272.874717 28.428644 C251.509543 20.325068 229.382712 15.638575 205.477988 14.954325 z"/><path class="selected"  fill="#444" opacity="1.000000" stroke="none" 
 	d="
M219.727988 331.704325 C214.585349 334.621012 209.783622 337.482615 204.744010 339.834360 C203.251456 340.530833 200.718345 340.433787 199.289512 339.610941 C182.994376 330.226267 166.830558 320.613810 150.612204 311.095377 C131.317069 299.771128 112.489188 287.498881 92.494590 277.581431 C82.293387 272.521555 80.698081 266.251597 80.801642 256.381663 C81.224631 216.071329 81.038932 175.753672 80.884849 135.439478 C80.869224 131.354517 82.583823 129.373820 85.841269 127.500269 C102.002204 118.205042 118.003486 108.632395 134.154807 99.320200 C146.239570 92.352595 158.518699 85.722376 170.613761 78.772211 C179.783194 73.503199 188.670890 67.729304 197.971274 62.712748 C200.357474 61.425639 204.523520 60.923090 206.694693 62.147517 C225.236716 72.604136 243.480430 83.588236 261.869040 94.319117 C273.797355 101.280024 285.832602 108.057413 297.793448 114.962900 C305.596915 119.468180 313.238547 124.271799 321.195060 128.483881 C323.816306 129.871531 324.007255 131.460963 324.005271 133.837885 C323.968131 178.317423 323.957602 222.797007 324.023917 267.276469 C324.028342 270.237162 322.980491 271.727488 320.333548 273.251139 C297.712882 286.272654 275.250541 299.568888 252.698600 312.710429 C241.838584 319.038798 230.887717 325.211253 219.727988 331.704325 M179.977988 91.454325 C171.480369 96.287653 162.986350 101.127360 154.484382 105.953013 C136.271262 116.290644 118.011359 126.547648 99.905173 137.069193 C98.119483 138.106852 96.153083 140.740198 96.142112 142.643687 C95.922522 180.801951 95.968863 218.961741 95.994208 257.121256 C95.996375 260.399638 97.410300 262.697367 100.597281 264.177714 C104.522773 266.001047 108.246894 268.277048 111.984824 270.481547 C125.113639 278.224558 138.176627 286.079600 151.329749 293.780833 C165.535727 302.098521 179.775107 310.361277 194.087027 318.494669 C198.237754 320.853464 202.486106 323.831156 207.658347 320.779551 C219.440787 313.827830 231.185660 306.810526 243.034324 299.973307 C262.795127 288.570383 282.674613 277.372111 302.375724 265.867747 C305.506614 264.039469 309.036521 262.098429 309.025596 257.286326 C308.939780 219.460306 308.986197 181.633982 308.963614 143.807764 C308.961661 140.524988 307.560416 138.227808 304.372916 136.745768 C300.448020 134.920863 296.736716 132.624338 292.982993 130.445628 C277.799949 121.633173 262.652640 112.759135 247.460074 103.963206 C234.966330 96.729777 222.417167 89.592173 209.914054 82.374857 C205.736503 79.963404 201.822318 78.885004 197.184684 81.858378 C191.860434 85.271952 186.067405 87.954325 179.977988 91.454325 z"/><path class="selected"  fill="#444" opacity="1.000000" stroke="none" 
 	d="
M253.727988 179.704325 C238.073661 189.025309 222.683310 198.120127 207.251334 207.143870 C204.679923 208.647471 202.121085 209.476664 199.050376 207.618082 C186.948295 200.293162 174.702872 193.205393 162.529563 185.997660 C152.624274 180.132822 142.801261 174.125956 132.818305 168.397257 C130.200049 166.894785 128.954749 168.522806 128.968039 171.297190 C128.999167 177.795328 128.977988 184.293711 128.977988 190.792002 C128.977988 209.453776 128.982749 228.115519 128.975242 246.777293 C128.972815 252.795817 127.044608 254.918864 121.608298 254.954325 C116.973990 254.984568 113.990027 251.719889 113.986899 246.452158 C113.968696 215.793528 114.012443 185.134806 113.936469 154.476389 C113.926444 150.425837 115.846625 147.893687 119.083411 145.944758 C122.282187 144.018687 124.527549 145.987101 127.116553 147.522578 C143.155570 157.034693 159.259208 166.438242 175.369254 175.830027 C183.145896 180.363596 191.217124 184.443491 198.680777 189.437510 C201.766684 191.502329 204.127860 191.179606 206.586173 189.754160 C218.963614 182.577067 231.219596 175.190714 243.534018 167.904551 C255.709525 160.700556 267.854606 153.442805 280.112662 146.381602 C285.526267 143.263117 290.937919 146.688670 290.957297 153.123072 C291.015006 172.284525 290.977988 191.446268 290.977988 210.607920 C290.977988 222.771403 290.990195 234.934885 290.972587 247.098337 C290.964408 252.764353 289.005118 254.876170 283.787131 254.954295 C279.186912 255.023173 276.013602 251.993540 276.002982 247.130778 C275.948813 222.304087 275.977714 197.477213 275.978782 172.650400 C275.978843 171.257792 275.990165 169.865183 275.996238 168.472575 C274.289512 168.833811 272.376944 168.819651 270.912406 169.622599 C265.190665 172.759531 259.610648 176.154948 253.727988 179.704325 z"/></svg>